<svg width="90" height="41" viewBox="0 0 90 41" fill="none" xmlns="http://www.w3.org/2000/svg">
<path d="M6.44 0.119997H24.12V8.52H11.64L19.24 19.8C22.6533 24.6533 24.5467 27.9867 24.92 29.8C25.1333 30.6533 25.24 31.5333 25.24 32.44C25.24 36.2267 23.8267 39.08 21 41H0.6V32.6H15.24L6.68 20.04C6.30667 19.4533 5.72 18.6267 4.92 17.56C4.17333 16.4933 3.58667 15.64 3.16 15C2.73333 14.3067 2.44 13.8 2.28 13.48C2.12 13.16 1.90667 12.76 1.64 12.28C1.37333 11.7467 1.18667 11.2933 1.08 10.92C0.866667 9.90667 0.76 9.08 0.76 8.44C0.76 4.54667 2.65333 1.77333 6.44 0.119997ZM53.9475 41H36.5075C31.1742 36.04 28.5075 29.2667 28.5075 20.68C28.5075 16.36 29.0942 12.6 30.2675 9.4C31.4942 6.2 33.4142 3.10666 36.0275 0.119997H54.7475C57.5208 3.32 59.4142 6.44 60.4275 9.48C61.4408 12.4667 61.9475 16.2 61.9475 20.68C61.9475 29.2667 59.2808 36.04 53.9475 41ZM42.1875 32.6H48.2675C50.1875 28.8667 51.1475 24.6267 51.1475 19.88C51.1475 15.1333 50.1608 11.3467 48.1875 8.52H42.1875C40.2675 11.24 39.3075 15.1067 39.3075 20.12C39.3075 25.08 40.2675 29.24 42.1875 32.6ZM70.4244 0.119997H88.1044V8.52H75.6244L83.2244 19.8C86.6377 24.6533 88.531 27.9867 88.9044 29.8C89.1177 30.6533 89.2244 31.5333 89.2244 32.44C89.2244 36.2267 87.811 39.08 84.9844 41H64.5844V32.6H79.2244L70.6644 20.04C70.291 19.4533 69.7044 18.6267 68.9044 17.56C68.1577 16.4933 67.571 15.64 67.1444 15C66.7177 14.3067 66.4244 13.8 66.2644 13.48C66.1044 13.16 65.891 12.76 65.6244 12.28C65.3577 11.7467 65.171 11.2933 65.0644 10.92C64.851 9.90667 64.7444 9.08 64.7444 8.44C64.7444 4.54667 66.6377 1.77333 70.4244 0.119997Z" fill="white"/>
</svg>
