<svg width="167" height="77" viewBox="0 0 167 77" fill="none" xmlns="http://www.w3.org/2000/svg">
<path d="M10.95 0.349994H44.1V16.1H20.7L34.95 37.25C41.35 46.35 44.9 52.6 45.6 56C46 57.6 46.2 59.25 46.2 60.95C46.2 68.05 43.55 73.4 38.25 77H2.12342e-07V61.25H27.45L11.4 37.7C10.7 36.6 9.6 35.05 8.1 33.05C6.7 31.05 5.6 29.45 4.8 28.25C4 26.95 3.45 26 3.15 25.4C2.85 24.8 2.45 24.05 1.95 23.15C1.45 22.15 1.1 21.3 0.9 20.6C0.5 18.7 0.3 17.15 0.3 15.95C0.3 8.65 3.85 3.45 10.95 0.349994ZM100.027 77H67.3266C57.3266 67.7 52.3266 55 52.3266 38.9C52.3266 30.8 53.4266 23.75 55.6266 17.75C57.9266 11.75 61.5266 5.95 66.4266 0.349994H101.527C106.727 6.34999 110.277 12.2 112.177 17.9C114.077 23.5 115.027 30.5 115.027 38.9C115.027 55 110.027 67.7 100.027 77ZM77.9766 61.25H89.3766C92.9766 54.25 94.7766 46.3 94.7766 37.4C94.7766 28.5 92.9266 21.4 89.2266 16.1H77.9766C74.3766 21.2 72.5766 28.45 72.5766 37.85C72.5766 47.15 74.3766 54.95 77.9766 61.25ZM130.921 0.349994H164.071V16.1H140.671L154.921 37.25C161.321 46.35 164.871 52.6 165.571 56C165.971 57.6 166.171 59.25 166.171 60.95C166.171 68.05 163.521 73.4 158.221 77H119.971V61.25H147.421L131.371 37.7C130.671 36.6 129.571 35.05 128.071 33.05C126.671 31.05 125.571 29.45 124.771 28.25C123.971 26.95 123.421 26 123.121 25.4C122.821 24.8 122.421 24.05 121.921 23.15C121.421 22.15 121.071 21.3 120.871 20.6C120.471 18.7 120.271 17.15 120.271 15.95C120.271 8.65 123.821 3.45 130.921 0.349994Z" fill="black"/>
</svg>
